<svg xmlns="http://www.w3.org/2000/svg" width="720" height="720" viewBox="0 0 720 720"><rect x="0" y="0" width="720" height="720" rx="0" ry="0" fill="#f2f7f5"/><g transform="translate(0 120)"><rect x="0" y="0" width="720" height="480" rx="0" ry="0" fill="#f2f7f5"/><rect x="56" y="160" width="608" height="156" rx="36" ry="36" fill="#ffffff" stroke="#e2ebe7" stroke-width="2"/><rect x="92" y="200" width="300" height="14" rx="7" ry="7" fill="#d3dcd8"/><rect x="92" y="228" width="210" height="12" rx="6" ry="6" fill="#e4ebe8"/><rect x="92" y="268" width="168" height="30" rx="15" ry="15" fill="#e7f6ef" stroke="#c2e4d4" stroke-width="2"/><circle cx="112" cy="283" r="8" fill="#079c5a"/><rect x="130" y="277" width="104" height="12" rx="6" ry="6" fill="#c2e4d4"/><circle cx="592" cy="238" r="30" fill="#079c5a"/><path d="M584 228 L604 238 L584 248" fill="none" stroke="#ffffff" stroke-width="5" stroke-linecap="round" stroke-linejoin="round"/><path d="M360 240 C420 240 430 130 470 130" fill="none" stroke="#c2e4d4" stroke-width="4" stroke-linecap="round" stroke-linejoin="round"/><path d="M456 124 L470 130 L456 136" fill="none" stroke="#c2e4d4" stroke-width="4" stroke-linecap="round" stroke-linejoin="round"/><rect x="470" y="104" width="186" height="52" rx="16" ry="16" fill="#e7f6ef" stroke="#c2e4d4" stroke-width="2"/><circle cx="496" cy="130" r="8" fill="#079c5a"/><rect x="514" y="124" width="118" height="12" rx="6" ry="6" fill="#c2e4d4"/></g></svg>