<svg xmlns="http://www.w3.org/2000/svg" width="720" height="720" viewBox="0 0 720 720"><rect x="0" y="0" width="720" height="720" rx="0" ry="0" fill="#f2f7f5"/><g transform="translate(0 120)"><rect x="0" y="0" width="720" height="480" rx="0" ry="0" fill="#f2f7f5"/><rect x="56" y="108" width="168" height="128" rx="24" ry="24" fill="#ffffff" stroke="#e2ebe7" stroke-width="2"/><rect x="78" y="132" width="44" height="44" rx="14" ry="14" fill="#e7f6ef"/><circle cx="100" cy="154" r="9" fill="#079c5a"/><rect x="78" y="192" width="104" height="12" rx="6" ry="6" fill="#d3dcd8"/><rect x="78" y="212" width="68" height="9" rx="4" ry="4" fill="#e4ebe8"/><rect x="256" y="108" width="168" height="128" rx="24" ry="24" fill="#ffffff" stroke="#079c5a" stroke-width="3"/><rect x="278" y="132" width="44" height="44" rx="14" ry="14" fill="#e9f3fa"/><circle cx="300" cy="154" r="9" fill="#3a7caa"/><rect x="278" y="192" width="104" height="12" rx="6" ry="6" fill="#d3dcd8"/><rect x="278" y="212" width="68" height="9" rx="4" ry="4" fill="#e4ebe8"/><circle cx="402" cy="130" r="20" fill="#079c5a"/><path d="M393.6 130.8 l6.0 6.4 l11.200000000000001 -12.4" fill="none" stroke="#ffffff" stroke-width="5.2" stroke-linecap="round" stroke-linejoin="round"/><rect x="456" y="108" width="168" height="128" rx="24" ry="24" fill="#ffffff" stroke="#e2ebe7" stroke-width="2"/><rect x="478" y="132" width="44" height="44" rx="14" ry="14" fill="#efecfb"/><circle cx="500" cy="154" r="9" fill="#6d5bd0"/><rect x="478" y="192" width="104" height="12" rx="6" ry="6" fill="#d3dcd8"/><rect x="478" y="212" width="68" height="9" rx="4" ry="4" fill="#e4ebe8"/><rect x="56" y="268" width="168" height="128" rx="24" ry="24" fill="#ffffff" stroke="#e2ebe7" stroke-width="2"/><rect x="78" y="292" width="44" height="44" rx="14" ry="14" fill="#fbf3e0"/><circle cx="100" cy="314" r="9" fill="#c08b23"/><rect x="78" y="352" width="104" height="12" rx="6" ry="6" fill="#d3dcd8"/><rect x="78" y="372" width="68" height="9" rx="4" ry="4" fill="#e4ebe8"/><rect x="256" y="268" width="168" height="128" rx="24" ry="24" fill="#ffffff" stroke="#e2ebe7" stroke-width="2"/><rect x="278" y="292" width="44" height="44" rx="14" ry="14" fill="#e7f6ef"/><circle cx="300" cy="314" r="9" fill="#079c5a"/><rect x="278" y="352" width="104" height="12" rx="6" ry="6" fill="#d3dcd8"/><rect x="278" y="372" width="68" height="9" rx="4" ry="4" fill="#e4ebe8"/><rect x="456" y="268" width="168" height="128" rx="24" ry="24" fill="#ffffff" stroke="#e2ebe7" stroke-width="2"/><rect x="478" y="292" width="44" height="44" rx="14" ry="14" fill="#e9f3fa"/><circle cx="500" cy="314" r="9" fill="#3a7caa"/><rect x="478" y="352" width="104" height="12" rx="6" ry="6" fill="#d3dcd8"/><rect x="478" y="372" width="68" height="9" rx="4" ry="4" fill="#e4ebe8"/></g></svg>