<svg xmlns="http://www.w3.org/2000/svg" width="720" height="720" viewBox="0 0 720 720"><rect x="0" y="0" width="720" height="720" rx="0" ry="0" fill="#f2f7f5"/><g transform="translate(0 120)"><rect x="0" y="0" width="720" height="480" rx="0" ry="0" fill="#f2f7f5"/><rect x="40" y="92" width="268" height="300" rx="26" ry="26" fill="#ffffff" stroke="#e2ebe7" stroke-width="2"/><rect x="68" y="124" width="150" height="14" rx="7" ry="7" fill="#d3dcd8"/><rect x="68" y="168" width="212" height="11" rx="5.5" ry="5.5" fill="#e4ebe8"/><rect x="68" y="192" width="198" height="11" rx="5.5" ry="5.5" fill="#e4ebe8"/><rect x="68" y="216" width="216" height="11" rx="5.5" ry="5.5" fill="#e4ebe8"/><rect x="68" y="240" width="176" height="11" rx="5.5" ry="5.5" fill="#e4ebe8"/><rect x="68" y="264" width="206" height="11" rx="5.5" ry="5.5" fill="#e4ebe8"/><rect x="68" y="288" width="148" height="11" rx="5.5" ry="5.5" fill="#e4ebe8"/><rect x="68" y="336" width="92" height="28" rx="14" ry="14" fill="#e4ebe8"/><path d="M322 242 H355.0" fill="none" stroke="#c2e4d4" stroke-width="5" stroke-linecap="round" stroke-linejoin="round"/><path d="M372 229 L388 242 L372 255" fill="none" stroke="#c2e4d4" stroke-width="5" stroke-linecap="round" stroke-linejoin="round"/><rect x="404" y="92" width="276" height="300" rx="26" ry="26" fill="#ffffff" stroke="#e2ebe7" stroke-width="2"/><rect x="404" y="92" width="276" height="76" rx="26" ry="26" fill="#e7f6ef"/><rect x="404" y="142" width="276" height="26" rx="0" ry="0" fill="#e7f6ef"/><rect x="430" y="122" width="138" height="16" rx="8" ry="8" fill="#c2e4d4"/><rect x="430" y="148" width="92" height="11" rx="5" ry="5" fill="#e4ebe8"/><rect x="430" y="206" width="224" height="38" rx="19" ry="19" fill="#e7f6ef"/><circle cx="452" cy="225" r="7" fill="#079c5a"/><rect x="472" y="219" width="116" height="12" rx="6" ry="6" fill="#e4ebe8"/><rect x="430" y="252" width="224" height="38" rx="19" ry="19" fill="#e9f3fa"/><circle cx="452" cy="271" r="7" fill="#3a7caa"/><rect x="472" y="265" width="116" height="12" rx="6" ry="6" fill="#e4ebe8"/><rect x="430" y="298" width="224" height="38" rx="19" ry="19" fill="#fbf3e0"/><circle cx="452" cy="317" r="7" fill="#c08b23"/><rect x="472" y="311" width="116" height="12" rx="6" ry="6" fill="#e4ebe8"/><rect x="430" y="350" width="132" height="22" rx="11" ry="11" fill="#e4ebe8"/></g></svg>