<svg xmlns="http://www.w3.org/2000/svg" width="720" height="720" viewBox="0 0 720 720"><rect x="0" y="0" width="720" height="720" rx="0" ry="0" fill="#f2f7f5"/><g transform="translate(0 120)"><rect x="0" y="0" width="720" height="480" rx="0" ry="0" fill="#f2f7f5"/><rect x="48" y="62" width="214" height="68" rx="18" ry="18" fill="#ffffff" stroke="#e2ebe7" stroke-width="2"/><path d="M80 76 H90.4 L103.2 88.8 V104 A8 8 0 0 1 95.2 116 H80 A8 8 0 0 1 72 108 V84 A8 8 0 0 1 80 76 Z" fill="#e7f6ef" stroke="#079c5a" stroke-width="2.4" stroke-linejoin="round"/><path d="M90.4 76 V88.8 H103.2" fill="#e7f6ef" stroke="#079c5a" stroke-width="2.4" stroke-linejoin="round"/><rect x="126" y="81" width="106" height="11" rx="5" ry="5" fill="#d3dcd8"/><rect x="126" y="102" width="72" height="9" rx="4" ry="4" fill="#e4ebe8"/><rect x="48" y="158" width="214" height="68" rx="18" ry="18" fill="#ffffff" stroke="#e2ebe7" stroke-width="2"/><rect x="70.0" y="175.28" width="44" height="33.44" rx="6" ry="6" fill="none" stroke="#3a7caa" stroke-width="2.4"/><circle cx="82.32" cy="185.9808" r="3.08" fill="#3a7caa"/><path d="M75.0 204.72 l13.2 -14.7136 l10.559999999999999 10.031999999999998 l7.04 -6.688 l11.0 11.3696 z" fill="#3a7caa"/><rect x="126" y="177" width="106" height="11" rx="5" ry="5" fill="#d3dcd8"/><rect x="126" y="198" width="72" height="9" rx="4" ry="4" fill="#e4ebe8"/><rect x="48" y="254" width="214" height="68" rx="18" ry="18" fill="#ffffff" stroke="#e2ebe7" stroke-width="2"/><rect x="69.0" y="276.0768" width="46" height="28.483199999999997" rx="7" ry="7" fill="none" stroke="#c08b23" stroke-width="2.4"/><rect x="82.8" y="271.44" width="15.64" height="6.624" rx="4" ry="4" fill="#c08b23"/><circle cx="92" cy="291.312" r="7.82" fill="none" stroke="#c08b23" stroke-width="2.4"/><rect x="126" y="273" width="106" height="11" rx="5" ry="5" fill="#d3dcd8"/><rect x="126" y="294" width="72" height="9" rx="4" ry="4" fill="#e4ebe8"/><path d="M276 152 H303.0" fill="none" stroke="#c2e4d4" stroke-width="5" stroke-linecap="round" stroke-linejoin="round"/><path d="M314 139 L330 152 L314 165" fill="none" stroke="#c2e4d4" stroke-width="5" stroke-linecap="round" stroke-linejoin="round"/><path d="M276 260 H303.0" fill="none" stroke="#c2e4d4" stroke-width="5" stroke-linecap="round" stroke-linejoin="round"/><path d="M314 247 L330 260 L314 273" fill="none" stroke="#c2e4d4" stroke-width="5" stroke-linecap="round" stroke-linejoin="round"/><path d="M276 368 H303.0" fill="none" stroke="#c2e4d4" stroke-width="5" stroke-linecap="round" stroke-linejoin="round"/><path d="M314 355 L330 368 L314 381" fill="none" stroke="#c2e4d4" stroke-width="5" stroke-linecap="round" stroke-linejoin="round"/><rect x="340" y="78" width="332" height="324" rx="30" ry="30" fill="#ffffff" stroke="#e2ebe7" stroke-width="2"/><rect x="340" y="78" width="332" height="60" rx="30" ry="30" fill="#e7f6ef"/><rect x="340" y="108" width="332" height="30" rx="0" ry="0" fill="#e7f6ef"/><circle cx="376" cy="108" r="15" fill="#079c5a"/><rect x="404" y="101" width="120" height="13" rx="6" ry="6" fill="#c2e4d4"/><rect x="376" y="168" width="244" height="13" rx="6.5" ry="6.5" fill="#e4ebe8"/><rect x="376" y="194" width="258" height="13" rx="6.5" ry="6.5" fill="#e4ebe8"/><rect x="376" y="220" width="228" height="13" rx="6.5" ry="6.5" fill="#e4ebe8"/><rect x="376" y="246" width="250" height="13" rx="6.5" ry="6.5" fill="#e4ebe8"/><rect x="376" y="272" width="186" height="13" rx="6.5" ry="6.5" fill="#e4ebe8"/><rect x="376" y="330" width="96" height="34" rx="17" ry="17" fill="#e7f6ef" stroke="#c2e4d4" stroke-width="2"/><rect x="484" y="330" width="78" height="34" rx="17" ry="17" fill="#e4ebe8"/><circle cx="628" cy="108" r="26" fill="#079c5a"/><path d="M617.08 109.04 l7.8 8.32 l14.560000000000002 -16.12" fill="none" stroke="#ffffff" stroke-width="6.76" stroke-linecap="round" stroke-linejoin="round"/></g></svg>