<svg xmlns="http://www.w3.org/2000/svg" width="24" height="24" viewBox="0 0 1024 1024">
  <path fill="#111111" d="M512 431.2a80.8 80.8 0 1 0 0 161.6 80.8 80.8 0 0 0 0-161.6Zm0 101.6a20.8 20.8 0 1 1 0-41.6 20.8 20.8 0 0 1 0 41.6Z"/>
  <path fill="#111111" d="M829.2 194.8c-49.4-49.4-151.1-22.8-271.9 61.6A998.2 998.2 0 0 0 512 290.9a998.2 998.2 0 0 0-45.3-34.5c-120.8-84.4-222.5-111-271.9-61.6-49.4 49.4-22.8 151.1 61.6 271.9A998.2 998.2 0 0 0 290.9 512a998.2 998.2 0 0 0-34.5 45.3c-84.4 120.8-111 222.5-61.6 271.9 49.4 49.4 151.1 22.8 271.9-61.6A998.2 998.2 0 0 0 512 733.1a998.2 998.2 0 0 0 45.3 34.5c120.8 84.4 222.5 111 271.9 61.6 49.4-49.4 22.8-151.1-61.6-271.9A998.2 998.2 0 0 0 733.1 512a998.2 998.2 0 0 0 34.5-45.3c84.4-120.8 111-222.5 61.6-271.9ZM237.2 237.2c19.4-19.4 93.4-3.7 196.5 68.3 10.3 7.2 20.8 15 31.3 23.2a913.6 913.6 0 0 0-136.3 136.3 761 761 0 0 1-23.2-31.3c-72-103.1-87.7-177.1-68.3-196.5ZM433.7 718.5c-103.1 72-177.1 87.7-196.5 68.3-19.4-19.4-3.7-93.4 68.3-196.5 7.2-10.3 15-20.8 23.2-31.3a913.6 913.6 0 0 0 136.3 136.3c-10.5 8.2-21 16-31.3 23.2ZM512 656.6A845.3 845.3 0 0 1 367.4 512 845.3 845.3 0 0 1 512 367.4 845.3 845.3 0 0 1 656.6 512 845.3 845.3 0 0 1 512 656.6Zm274.8 130.2c-19.4 19.4-93.4 3.7-196.5-68.3-10.3-7.2-20.8-15-31.3-23.2a913.6 913.6 0 0 0 136.3-136.3c8.2 10.5 16 21 23.2 31.3 72 103.1 87.7 177.1 68.3 196.5Zm-68.3-353.1c-7.2 10.3-15 20.8-23.2 31.3A913.6 913.6 0 0 0 559 328.7c10.5-8.2 21-16 31.3-23.2 103.1-72 177.1-87.7 196.5-68.3 19.4 19.4 3.7 93.4-68.3 196.5Z"/>
</svg>
